<?xml version="1.0" encoding="UTF-8"?><svg id="Layer_2" xmlns="http://www.w3.org/2000/svg" viewBox="0 0 16 16"><g id="Layer_1-2"><rect width="16" height="16" style="fill:#9ddd31; stroke-width:0px;"/><path d="m5.77,6.57c-.59-.51-1.35-.79-2.14-.79h-.63v.79h.63c.68,0,1.31.26,1.78.74.47.48.73,1.12.73,1.8v4.04h.79v-4.04c0-.89-.34-1.73-.96-2.36-.06-.07-.13-.13-.2-.19" style="stroke-width:0px;"/><path d="m13,2.84H3v.79h.63c.94,0,1.84.23,2.63.68.39.22.75.48,1.08.79.05.04.09.09.14.14.17.17.33.35.47.54.19.25.36.51.5.79.4.78.62,1.64.62,2.55v4.04h.79v-4.04c0-.89-.18-1.76-.53-2.55h3.67v-.79h-4.09c-.15-.23-.31-.46-.49-.68h4.58v-.79h-5.36c-.3-.26-.63-.48-.97-.68h6.33v-.79Z" style="stroke-width:0px;"/><path d="m7.07,5.78s-.04-.04-.06-.06c-.23-.23-.48-.44-.74-.61-.72-.48-1.56-.76-2.45-.79-.06,0-.13,0-.19,0h0s-.63,0-.63,0v.79h.8c.74.03,1.45.27,2.05.68.21.14.41.31.59.49.09.09.18.19.27.3.58.71.9,1.6.9,2.55v4.04h.79v-4.04c0-.92-.25-1.79-.72-2.55-.17-.28-.38-.55-.61-.79" style="stroke-width:0px;"/></g></svg>